<?xml version="1.0" encoding="UTF-8" standalone="no"?>
<!DOCTYPE svg PUBLIC "-//W3C//DTD SVG 1.1//EN" "http://www.w3.org/Graphics/SVG/1.1/DTD/svg11.dtd">
<svg width="100%" height="100%" viewBox="0 0 128 128" version="1.1" xmlns="http://www.w3.org/2000/svg" xmlns:xlink="http://www.w3.org/1999/xlink" xml:space="preserve" xmlns:serif="http://www.serif.com/" style="fill-rule:evenodd;clip-rule:evenodd;stroke-linejoin:round;stroke-miterlimit:2;">
    <g transform="matrix(3.0573,0,0,3.0573,105.209,12.0259)">
        <path d="M0,34L-22,34L-22,4C-22,1.791 -20.209,0 -18,0L-2.586,0L4,6.586L4,30C4,32.209 2.209,34 0,34" style="fill:white;fill-rule:nonzero;"/>
    </g>
    <path d="M100.36,10.76C99.214,9.614 97.658,8.969 96.037,8.969L50.178,8.969C41.737,8.969 34.891,15.811 34.891,24.255L34.891,103.745C34.891,112.189 41.737,119.031 50.178,119.031L105.209,119.031C113.654,119.031 120.496,112.189 120.496,103.745L120.496,33.427C120.496,31.807 119.851,30.25 118.704,29.104L100.36,10.76ZM32.323,109.271L29.605,110.249C30.587,112.994 33.094,115.031 36.145,115.56L36.64,112.71C35.405,112.496 34.292,111.924 33.467,111.087C33.461,111.081 33.458,111.074 33.451,111.071C33.445,111.065 33.442,111.059 33.436,111.056L33.427,111.047L33.427,111.044C33.424,111.041 33.421,111.035 33.415,111.032L33.415,111.029L33.406,111.019C33.403,111.016 33.403,111.016 33.403,111.013L33.399,111.013C33.396,111.013 33.396,111.01 33.393,111.007L33.39,111.007C33.387,111.004 33.387,111.001 33.384,110.998L33.381,110.998C33.381,110.995 33.378,110.995 33.378,110.992C33.378,110.992 33.375,110.992 33.375,110.989C33.372,110.989 33.372,110.986 33.369,110.983L33.351,110.964C33.351,110.961 33.348,110.961 33.348,110.958C33.344,110.958 33.344,110.955 33.344,110.955C33.341,110.952 33.341,110.952 33.338,110.952C33.338,110.949 33.338,110.949 33.335,110.949C33.335,110.946 33.332,110.943 33.332,110.943L33.329,110.94C33.326,110.937 33.326,110.937 33.326,110.934C33.323,110.934 33.32,110.931 33.32,110.928C33.32,110.928 33.317,110.928 33.317,110.925C33.314,110.925 33.314,110.922 33.314,110.922C33.311,110.922 33.311,110.919 33.311,110.919L33.302,110.909C33.302,110.906 33.299,110.906 33.299,110.903L33.299,110.9C33.296,110.9 33.296,110.897 33.292,110.897C33.292,110.894 33.292,110.894 33.289,110.894C33.289,110.891 33.286,110.888 33.283,110.888L33.283,110.885C33.28,110.885 33.28,110.882 33.277,110.882C33.277,110.882 33.277,110.879 33.274,110.879C33.274,110.876 33.271,110.876 33.271,110.873C33.268,110.873 33.268,110.873 33.268,110.87C33.265,110.87 33.265,110.867 33.262,110.864L33.259,110.86C33.259,110.86 33.256,110.857 33.256,110.854L33.253,110.854C33.253,110.851 33.25,110.848 33.247,110.848L33.247,110.845C33.244,110.842 33.241,110.839 33.241,110.836L33.237,110.836C33.237,110.833 33.234,110.833 33.231,110.83L33.231,110.827C33.228,110.827 33.228,110.824 33.225,110.821L33.222,110.821C33.222,110.818 33.219,110.815 33.219,110.812L33.216,110.812C33.216,110.808 33.213,110.805 33.21,110.802C33.207,110.799 33.204,110.796 33.204,110.793L33.201,110.793C33.201,110.79 33.198,110.79 33.195,110.787L33.195,110.784L33.189,110.778L33.189,110.775C33.182,110.772 33.179,110.766 33.173,110.76C33.17,110.753 33.161,110.744 33.155,110.735C32.8,110.301 32.519,109.812 32.323,109.271ZM114.381,103.745C114.381,108.811 110.275,112.917 105.209,112.917L50.178,112.917C45.115,112.917 41.006,108.811 41.006,103.745L41.006,24.255C41.006,19.189 45.115,15.083 50.178,15.083L91.451,15.083C93.986,15.083 96.037,17.138 96.037,19.669L96.037,33.427L109.795,33.427C112.33,33.427 114.381,35.482 114.381,38.013L114.381,103.745ZM29.168,98.142L26.386,98.928L27.957,104.495L30.743,103.709L30.498,102.853L30.498,102.841C30.495,102.841 30.495,102.838 30.495,102.835L30.495,102.832L30.492,102.829L30.492,102.826L30.483,102.792C30.483,102.789 30.483,102.789 30.48,102.786L30.48,102.777C30.477,102.777 30.477,102.777 30.477,102.774L30.474,102.765L30.474,102.762L30.471,102.752L30.471,102.749L30.468,102.743C30.468,102.737 30.468,102.734 30.464,102.731L30.464,102.725L30.461,102.716L30.458,102.713L30.455,102.704L30.455,102.694C30.452,102.691 30.452,102.685 30.449,102.679L30.449,102.676C30.443,102.658 30.437,102.636 30.434,102.618L30.431,102.618C30.431,102.612 30.428,102.606 30.428,102.6C29.969,100.973 29.168,98.142 29.168,98.142ZM26.022,87.01L23.237,87.796L24.812,93.364L27.594,92.575L26.022,87.01ZM22.873,75.876L20.091,76.665L21.666,82.229L24.448,81.446L22.873,75.876ZM19.727,64.747L16.945,65.533L18.52,71.097L21.302,70.311L20.226,66.508L20.226,66.505L20.158,66.27C20.158,66.267 20.158,66.264 20.155,66.264L20.155,66.251L20.152,66.251L20.149,66.236L20.14,66.209L20.14,66.206L20.134,66.178C20.134,66.178 20.134,66.175 20.131,66.175L20.125,66.154C20.125,66.151 20.122,66.147 20.122,66.141L20.122,66.138C20.122,66.135 20.119,66.135 20.119,66.135L20.116,66.123L20.116,66.114L20.112,66.114L20.112,66.111C20.109,66.102 20.106,66.092 20.106,66.083L20.103,66.08L20.103,66.074C19.886,65.307 19.727,64.747 19.727,64.747ZM75.301,64.998C76.275,63.825 78.016,63.665 79.187,64.639C79.85,65.19 80.836,65.1 81.387,64.437C81.939,63.774 81.848,62.788 81.185,62.236C78.687,60.159 74.974,60.5 72.897,63.002C72.346,63.665 72.437,64.651 73.101,65.202C73.764,65.753 74.75,65.662 75.301,64.998ZM16.581,53.613L13.799,54.398L15.371,59.966L18.153,59.177C18.153,59.177 17.801,57.929 17.428,56.618L17.428,56.615C17.428,56.612 17.425,56.609 17.425,56.606L16.581,53.613ZM64.927,54.828C64.927,56.519 63.56,57.885 61.87,57.885C60.179,57.885 58.812,56.519 58.812,54.828C58.812,53.137 60.179,51.771 61.87,51.771C63.56,51.771 64.927,53.137 64.927,54.828ZM95.5,54.828C95.5,56.519 94.133,57.885 92.443,57.885C90.752,57.885 89.385,56.519 89.385,54.828C89.385,53.137 90.752,51.771 92.443,51.771C94.133,51.771 95.5,53.137 95.5,54.828ZM13.432,42.478L10.65,43.267L12.225,48.834L15.007,48.048L13.432,42.478ZM10.286,31.349L7.504,32.135L9.079,37.702L11.861,36.914L10.286,31.349ZM18.856,24.424L13.292,25.999L14.077,28.781L19.645,27.207L18.856,24.424ZM29.988,21.279L24.423,22.853L25.209,25.635L29.483,24.428C29.483,24.428 29.483,24.424 29.486,24.424L29.596,24.394L29.599,24.394L29.621,24.391C29.621,24.391 29.621,24.388 29.624,24.388L29.633,24.385L29.636,24.385L29.645,24.382L29.651,24.382L29.663,24.379L29.67,24.376L29.673,24.376C29.676,24.376 29.679,24.373 29.679,24.373L29.682,24.373C29.7,24.366 29.722,24.36 29.737,24.357L29.737,24.354C30.354,24.18 30.776,24.061 30.776,24.061L29.988,21.279Z" style="fill:rgb(53,64,82);"/>
</svg>
