<?xml version="1.0" encoding="UTF-8" standalone="no"?>
<!DOCTYPE svg PUBLIC "-//W3C//DTD SVG 1.1//EN" "http://www.w3.org/Graphics/SVG/1.1/DTD/svg11.dtd">
<svg width="100%" height="100%" viewBox="0 0 128 128" version="1.1" xmlns="http://www.w3.org/2000/svg" xmlns:xlink="http://www.w3.org/1999/xlink" xml:space="preserve" xmlns:serif="http://www.serif.com/" style="fill-rule:evenodd;clip-rule:evenodd;stroke-linejoin:round;stroke-miterlimit:2;">
    <path d="M88.451,119.025C90.373,119.269 93.909,119.417 100.417,119.417C114.667,119.417 114.667,118.707 114.667,117.833C114.667,116.959 114.667,116.25 100.417,116.25C93.909,116.25 90.373,116.398 88.451,116.642C86.249,115.483 78.926,114.667 56.083,114.667C29.167,114.667 22.833,116.082 22.833,117.833C22.833,119.584 29.167,121 56.083,121C78.926,121 86.249,120.184 88.451,119.025ZM54.5,86.167C33.546,86.167 16.5,69.12 16.5,48.167C16.5,27.213 33.546,10.167 54.5,10.167C75.454,10.167 92.5,27.213 92.5,48.167C92.5,69.12 75.454,86.167 54.5,86.167Z" style="fill:rgb(239,239,239);fill-rule:nonzero;"/>
    <g transform="matrix(0,-3.16667,-3.16667,0,51.3333,19.6667)">
        <path d="M-10,-10C-15.522,-10 -20,-5.522 -20,0C-20,5.522 -15.522,10 -10,10C-4.478,10 0,5.522 0,0C0,-5.522 -4.478,-10 -10,-10" style="fill:white;fill-rule:nonzero;"/>
    </g>
    <path d="M80.582,79.99C73.476,85.827 64.39,89.333 54.5,89.333C31.801,89.333 13.333,70.865 13.333,48.167C13.333,25.468 31.801,7 54.5,7C77.199,7 95.667,25.468 95.667,48.167C95.667,58.056 92.161,67.143 86.324,74.249L91.936,79.861C93.739,79.699 95.597,80.309 96.978,81.689L109.644,94.356C112.117,96.829 112.117,100.838 109.644,103.311C108.406,104.549 106.788,105.167 105.167,105.167C103.545,105.167 101.927,104.549 100.689,103.311L88.022,90.644C86.642,89.264 86.032,87.405 86.194,85.603L80.582,79.99ZM81.828,69.753C86.531,63.822 89.333,56.321 89.333,48.167C89.333,28.929 73.737,13.333 54.5,13.333C35.262,13.333 19.667,28.929 19.667,48.167C19.667,67.404 35.262,83 54.5,83C62.655,83 70.155,80.198 76.086,75.494C76.086,75.494 77.781,74.241 79.366,72.656C80.95,71.072 81.828,69.753 81.828,69.753ZM42.989,68.522C44.032,67.267 45.896,67.095 47.149,68.138C47.795,68.675 48.756,68.587 49.293,67.941C49.83,67.295 49.742,66.334 49.096,65.797C46.55,63.679 42.764,64.027 40.646,66.577C40.11,67.224 40.199,68.184 40.845,68.721C41.492,69.258 42.452,69.169 42.989,68.522ZM35.5,54.5C35.5,56.251 34.084,57.667 32.333,57.667C30.582,57.667 29.167,56.251 29.167,54.5C29.167,52.749 30.582,51.333 32.333,51.333C34.084,51.333 35.5,52.749 35.5,54.5ZM57.667,54.5C57.667,56.251 56.251,57.667 54.5,57.667C52.749,57.667 51.333,56.251 51.333,54.5C51.333,52.749 52.749,51.333 54.5,51.333C56.251,51.333 57.667,52.749 57.667,54.5Z" style="fill:rgb(53,64,82);"/>
</svg>
